<?xml version="1.0" encoding="utf-8"?>
<!-- Generator: Adobe Illustrator 22.1.0, SVG Export Plug-In . SVG Version: 6.00 Build 0)  -->
<svg version="1.1" id="Layer_1" xmlns="http://www.w3.org/2000/svg" xmlns:xlink="http://www.w3.org/1999/xlink" x="0px" y="0px"
	 viewBox="0 0 177.3 200.1" style="enable-background:new 0 0 177.3 200.1;" xml:space="preserve">
<style type="text/css">
	.st0{fill:#FFFFFF;}
	.st1{fill:#DEE6EA;}
	.st2{font-family:'MyriadPro-Regular';}
	.st3{font-size:62.93px;}
	.st4{font-size:22.54px;}
	.st5{letter-spacing:2;}
</style>
<title>Asset 1</title>
<g id="Layer_2_1_">
	<g id="Capa_1">
		<path class="st0" d="M119,78.7c4.5-0.4,9.1-0.9,12.6-4.2c15.6-14.6,28.3-31.7,40.6-49.1c0.4-0.6,0.8-1.9,0.6-2.1
			c-1-0.9-1.6,0.2-2.1,0.8c-12.1,13.2-24.1,26.4-36.3,39.6c-0.9,1-2,3.3-3.3,2.1s0.8-2.7,1.8-3.9c11.6-14,23.3-27.9,35-41.8
			c0.3-0.4,0.2-1,0.4-1.5c-0.5,0.1-1.1,0.1-1.4,0.5c-12.9,13.6-25.8,27.1-38.7,40.7c-0.6,0.6-1.3,1.8-2.3,0.9s0.2-1.7,0.7-2.3
			c12.3-14.2,24.5-28.5,36.8-42.7c0.3-0.3,0.2-1.1,0.3-1.6c-0.5,0.1-1,0.3-1.4,0.6c-8.7,8.6-17.3,17.3-26,25.9
			c-0.2,0.2-8.5,8.9-12.8,13.2c-0.8,0.8-1.7,2.4-2.9,1.2s0.5-2,1.2-2.8c12.3-13.3,24.6-26.7,36.8-40c0.5-0.6,1-2,0.8-2.2
			c-1-0.8-1.5,0.4-2.1,0.9c-9.4,8.6-19.1,17-28.1,26c-7,7-15.6,12.8-19.8,22.4c-2.2,4.9-1.3,10.8-5,15.2c-7.6,9-16.1,17.2-24.6,25.5
			c-22.3,21.8-46.4,41.7-72,59.5c-4,2.8-7.3,6.2-6.4,11.5c0.9,5.1,4,8.7,9.1,9.9c6.7,1.6,10.8-2.6,14.4-7.3
			c22.3-29.2,45.7-57.5,72.8-82.4C103.8,85.5,109.9,79.5,119,78.7z M126.5,69.2c0.8-0.7,3.2,0.6,4.9,1c-0.4,0.7-0.8,1.6-1.4,2
			c-4.2,3-8.5,5.5-14,2.8C121.3,75.9,123.4,71.9,126.5,69.2L126.5,69.2z M23.8,171.8c-2.1,4.2-5.2,7.2-12,8.5
			C16.4,178.4,20.5,175.5,23.8,171.8z"/>
		<path d="M11.8,180.3c4.6-1.9,8.7-4.8,12-8.5C21.7,176,18.6,179,11.8,180.3z"/>
		<path d="M130.1,72.2c-4.2,3-8.5,5.5-14,2.8c5.2,1,7.3-3.1,10.5-5.7c0.8-0.7,3.2,0.6,4.9,1C131,70.8,130.7,71.8,130.1,72.2z"/>
		<path class="st0" d="M168.9,163.9c2.8,4.4,1.1,10.1-3.8,13.4s-10.5,2-14.6-3.1c-17.3-21.5-37.2-46.3-57.1-65.4
			c-13.2-12.8-9.3-6.4-17.5-8.4c-4.3-1.1-7.6-6.6-11.2-10.3C54.4,79.2,44.2,68.2,34,57.2C23,45.2,11.6,33.5,5,18.4
			c-1.3-2.9-2.5-6.2,1-9.2C6.1,9,6.2,8.9,6.3,8.8C6.6,8.5,7,8.3,7.4,8.2l0,0c3.2,0.1,4.9,2.5,6.7,4.3C32.7,30.9,50.9,50,70,68.1
			c16.1,15.2,29.7,32.8,45.3,48.5c13.3,13.4,28,25.4,42.9,37.3C162,156.9,166.2,159.7,168.9,163.9z"/>
		<path d="M166.5,173c1.9-7.3-5.4-13.3-8-15.8C162.1,159,170.4,166.2,166.5,173z"/>
		<path d="M84.1,87.3c0,0-69.1-71.1-72.2-72.9s0.5,2.8,8.7,11.6S84.1,87.3,84.1,87.3z"/>
		<text transform="matrix(1.06 0 0 1 55.1504 52.6699)" class="st1 st2 st3">B</text>
		<text transform="matrix(1.06 0 0 1 57.3003 184.3398)" class="st1 st2 st3">T</text>
		<text transform="matrix(1 0 0 1 0 107.72)" class="st0 st2 st4 st5">BEST</text>
		<text transform="matrix(1 0 0 1 109.3 107.72)" class="st0 st2 st4">T</text>
		<text transform="matrix(1 0 0 1 121.07 107.72)" class="st0 st2 st4 st5">ASTE</text>
	</g>
</g>
</svg>
