<svg xmlns="http://www.w3.org/2000/svg" viewBox="0 0 177.29 200.08"><defs><style>.cls-1{fill:#fff;}.cls-2{font-size:62.93px;fill:#211915;}.cls-2,.cls-3,.cls-4{font-family:MyriadPro-Regular, Myriad Pro;}.cls-3,.cls-4{font-size:22.54px;}.cls-3{letter-spacing:0.1em;}.cls-4{letter-spacing:0.02em;}.cls-5{letter-spacing:0.1em;}</style></defs><title>Asset 1</title><g id="Layer_2" data-name="Layer 2"><g id="Capa_1" data-name="Capa 1"><path d="M119,78.68c4.49-.4,9.11-.93,12.55-4.15,15.62-14.63,28.32-31.68,40.59-49.08.42-.59.83-1.88.57-2.12-1-.91-1.59.25-2.13.83-12.09,13.2-24.14,26.43-36.28,39.59-.87,1-2,3.32-3.26,2.07s.82-2.73,1.78-3.87q17.44-20.93,35-41.82c.29-.35.25-1,.36-1.49-.48.14-1.11.14-1.41.45q-19.35,20.33-38.67,40.69c-.6.63-1.32,1.8-2.3.91s.16-1.67.74-2.34Q144.95,37,163.35,15.66c.3-.34.19-1.05.28-1.58a4.16,4.16,0,0,0-1.41.56q-13,12.95-26,25.94c-.17.2-8.48,8.89-12.85,13.2-.81.79-1.74,2.37-2.94,1.17s.5-2,1.2-2.77q18.42-20,36.85-40c.51-.56,1-2,.81-2.19-1-.84-1.52.37-2.11.91-9.4,8.62-19.07,17-28.08,26-7,7-15.61,12.84-19.81,22.37-2.15,4.88-1.35,10.8-5,15.17-7.63,9-16.13,17.25-24.63,25.48a573.44,573.44,0,0,1-72,59.53c-4,2.78-7.27,6.23-6.38,11.53.86,5.07,4,8.74,9.07,9.93,6.65,1.56,10.8-2.62,14.38-7.32,22.29-29.23,45.68-57.5,72.83-82.42C103.75,85.52,109.9,79.5,119,78.68Zm7.52-9.47c.78-.67,3.22.58,4.9,1-.45.68-.75,1.59-1.38,2-4.16,3-8.48,5.48-14,2.75C121.3,75.94,123.42,71.88,126.53,69.21ZM23.81,171.8c-2.1,4.24-5.21,7.23-12,8.49A34.52,34.52,0,0,0,23.81,171.8Z"/><path class="cls-1" d="M11.84,180.29a34.52,34.52,0,0,0,12-8.49C21.71,176,18.6,179,11.84,180.29Z"/><path class="cls-1" d="M130.05,72.2c-4.16,3-8.48,5.48-14,2.75,5.23,1,7.35-3.07,10.46-5.74.78-.67,3.22.58,4.9,1C131,70.84,130.68,71.75,130.05,72.2Z"/><path d="M168.88,163.91c2.83,4.39,1.14,10.11-3.76,13.41s-10.52,2-14.6-3.06C133.23,152.8,113.3,128,93.4,108.83c-13.25-12.77-9.29-6.36-17.5-8.41-4.32-1.08-7.63-6.61-11.16-10.34Q49.28,73.72,34,57.16C23,45.23,11.64,33.55,5,18.36c-1.28-2.92-2.49-6.17,1-9.21a1.88,1.88,0,0,1,.29-.39,2.67,2.67,0,0,1,1.16-.55l0,0c3.21.12,4.9,2.53,6.65,4.26C32.72,30.93,50.86,50,70,68.07c16.14,15.25,29.73,32.79,45.31,48.5C128.64,130,143.32,142,158.16,153.82,162,156.88,166.16,159.69,168.88,163.91Z"/><path class="cls-1" d="M166.52,173c1.87-7.26-5.39-13.27-8-15.83C162.11,159,170.35,166.23,166.52,173Z"/><path class="cls-1" d="M84.09,87.26S15,16.17,11.86,14.38s.53,2.81,8.7,11.63S84.09,87.26,84.09,87.26Z"/><text class="cls-2" transform="translate(55.15 52.67) scale(1.06 1)">B</text><text class="cls-2" transform="translate(57.3 184.34) scale(1.06 1)">T</text><text class="cls-3" transform="translate(0 107.72)">BEST</text><text class="cls-4" transform="translate(109.3 107.72)">T<tspan class="cls-5" x="11.77" y="0">ASTE</tspan></text></g></g></svg>